<svg fill="rgb(51,130,117)" height="512pt" preserveAspectRatio="xMidYMid meet" version="1.0" viewBox="0 0 512 512" width="512pt" xmlns="http://www.w3.org/2000/svg"><g transform="translate(76.8,76.8) scale(0.7)">
<g transform="translate(0.000000,512) scale(0.100000,-0.100000)">
<path d="M 920 4800 h 360 v 10 h -360 z M 1430 4800 h 2300 v 10 h -2300 z M 880 4790 h 400 v 10 h -400 z M 1430 4790 h 2300 v 10 h -2300 z M 860 4780 h 420 v 10 h -420 z M 1430 4780 h 2300 v 10 h -2300 z M 860 4770 h 420 v 10 h -420 z M 1430 4770 h 2300 v 10 h -2300 z M 850 4760 h 430 v 10 h -430 z M 1430 4760 h 2300 v 10 h -2300 z M 850 4750 h 430 v 10 h -430 z M 1430 4750 h 2300 v 10 h -2300 z M 850 4740 h 430 v 10 h -430 z M 1430 4740 h 2300 v 10 h -2300 z M 850 4730 h 430 v 10 h -430 z M 1430 4730 h 2300 v 10 h -2300 z M 850 4720 h 430 v 10 h -430 z M 1430 4720 h 2300 v 10 h -2300 z M 850 4710 h 430 v 10 h -430 z M 1430 4710 h 2300 v 10 h -2300 z M 850 4700 h 430 v 10 h -430 z M 1430 4700 h 2300 v 10 h -2300 z M 850 4690 h 430 v 10 h -430 z M 1430 4690 h 2300 v 10 h -2300 z M 850 4680 h 430 v 10 h -430 z M 1430 4680 h 2300 v 10 h -2300 z M 850 4670 h 430 v 10 h -430 z M 1430 4670 h 2300 v 10 h -2300 z M 850 4660 h 430 v 10 h -430 z M 1430 4660 h 2300 v 10 h -2300 z M 850 4650 h 430 v 10 h -430 z M 1430 4650 h 2300 v 10 h -2300 z M 850 4640 h 430 v 10 h -430 z M 1430 4640 h 2300 v 10 h -2300 z M 850 4630 h 430 v 10 h -430 z M 1430 4630 h 2300 v 10 h -2300 z M 850 4620 h 430 v 10 h -430 z M 1430 4620 h 2300 v 10 h -2300 z M 850 4610 h 430 v 10 h -430 z M 1430 4610 h 2300 v 10 h -2300 z M 850 4600 h 430 v 10 h -430 z M 1430 4600 h 2300 v 10 h -2300 z M 850 4590 h 430 v 10 h -430 z M 1430 4590 h 2300 v 10 h -2300 z M 850 4580 h 430 v 10 h -430 z M 1430 4580 h 2300 v 10 h -2300 z M 850 4570 h 430 v 10 h -430 z M 1430 4570 h 2300 v 10 h -2300 z M 850 4560 h 430 v 10 h -430 z M 1430 4560 h 2300 v 10 h -2300 z M 850 4550 h 430 v 10 h -430 z M 1430 4550 h 2300 v 10 h -2300 z M 850 4540 h 430 v 10 h -430 z M 1430 4540 h 2300 v 10 h -2300 z M 850 4530 h 430 v 10 h -430 z M 1430 4530 h 2300 v 10 h -2300 z M 850 4520 h 430 v 10 h -430 z M 1430 4520 h 2300 v 10 h -2300 z M 850 4510 h 430 v 10 h -430 z M 1430 4510 h 2300 v 10 h -2300 z M 850 4500 h 430 v 10 h -430 z M 1430 4500 h 2300 v 10 h -2300 z M 850 4490 h 430 v 10 h -430 z M 1430 4490 h 2300 v 10 h -2300 z M 850 4480 h 430 v 10 h -430 z M 1430 4480 h 2300 v 10 h -2300 z M 850 4470 h 430 v 10 h -430 z M 1430 4470 h 2300 v 10 h -2300 z M 850 4460 h 430 v 10 h -430 z M 1430 4460 h 380 v 10 h -380 z M 3340 4460 h 390 v 10 h -390 z M 850 4450 h 430 v 10 h -430 z M 1430 4450 h 360 v 10 h -360 z M 3360 4450 h 370 v 10 h -370 z M 850 4440 h 430 v 10 h -430 z M 1430 4440 h 350 v 10 h -350 z M 3370 4440 h 360 v 10 h -360 z M 850 4430 h 430 v 10 h -430 z M 1430 4430 h 350 v 10 h -350 z M 3380 4430 h 350 v 10 h -350 z M 850 4420 h 430 v 10 h -430 z M 1430 4420 h 340 v 10 h -340 z M 3380 4420 h 350 v 10 h -350 z M 850 4410 h 430 v 10 h -430 z M 1430 4410 h 340 v 10 h -340 z M 3390 4410 h 340 v 10 h -340 z M 3870 4410 h 400 v 10 h -400 z M 850 4400 h 430 v 10 h -430 z M 1430 4400 h 340 v 10 h -340 z M 3390 4400 h 340 v 10 h -340 z M 3870 4400 h 400 v 10 h -400 z M 850 4390 h 430 v 10 h -430 z M 1430 4390 h 330 v 10 h -330 z M 3390 4390 h 340 v 10 h -340 z M 3870 4390 h 400 v 10 h -400 z M 850 4380 h 430 v 10 h -430 z M 1430 4380 h 330 v 10 h -330 z M 3390 4380 h 340 v 10 h -340 z M 3870 4380 h 400 v 10 h -400 z M 850 4370 h 430 v 10 h -430 z M 1430 4370 h 330 v 10 h -330 z M 3390 4370 h 340 v 10 h -340 z M 3870 4370 h 400 v 10 h -400 z M 850 4360 h 430 v 10 h -430 z M 1430 4360 h 330 v 10 h -330 z M 3390 4360 h 340 v 10 h -340 z M 3870 4360 h 400 v 10 h -400 z M 850 4350 h 430 v 10 h -430 z M 1430 4350 h 330 v 10 h -330 z M 3390 4350 h 340 v 10 h -340 z M 3870 4350 h 400 v 10 h -400 z M 850 4340 h 430 v 10 h -430 z M 1430 4340 h 330 v 10 h -330 z M 3390 4340 h 340 v 10 h -340 z M 3870 4340 h 400 v 10 h -400 z M 850 4330 h 430 v 10 h -430 z M 1430 4330 h 330 v 10 h -330 z M 3390 4330 h 340 v 10 h -340 z M 3870 4330 h 400 v 10 h -400 z M 850 4320 h 430 v 10 h -430 z M 1430 4320 h 330 v 10 h -330 z M 1910 4320 h 1340 v 10 h -1340 z M 3390 4320 h 340 v 10 h -340 z M 3870 4320 h 400 v 10 h -400 z M 850 4310 h 430 v 10 h -430 z M 1430 4310 h 330 v 10 h -330 z M 1910 4310 h 1340 v 10 h -1340 z M 3390 4310 h 340 v 10 h -340 z M 3870 4310 h 400 v 10 h -400 z M 850 4300 h 430 v 10 h -430 z M 1430 4300 h 330 v 10 h -330 z M 1910 4300 h 1340 v 10 h -1340 z M 3390 4300 h 340 v 10 h -340 z M 3870 4300 h 400 v 10 h -400 z M 850 4290 h 430 v 10 h -430 z M 1430 4290 h 330 v 10 h -330 z M 1910 4290 h 1340 v 10 h -1340 z M 3390 4290 h 340 v 10 h -340 z M 3870 4290 h 400 v 10 h -400 z M 850 4280 h 430 v 10 h -430 z M 1430 4280 h 330 v 10 h -330 z M 1910 4280 h 1340 v 10 h -1340 z M 3390 4280 h 340 v 10 h -340 z M 3870 4280 h 400 v 10 h -400 z M 1430 4270 h 330 v 10 h -330 z M 1910 4270 h 1340 v 10 h -1340 z M 3390 4270 h 340 v 10 h -340 z M 3870 4270 h 400 v 10 h -400 z M 1430 4260 h 330 v 10 h -330 z M 1910 4260 h 1340 v 10 h -1340 z M 3390 4260 h 340 v 10 h -340 z M 3870 4260 h 400 v 10 h -400 z M 1430 4250 h 330 v 10 h -330 z M 1910 4250 h 1340 v 10 h -1340 z M 3390 4250 h 340 v 10 h -340 z M 3870 4250 h 400 v 10 h -400 z M 1430 4240 h 330 v 10 h -330 z M 1910 4240 h 1340 v 10 h -1340 z M 3390 4240 h 340 v 10 h -340 z M 3870 4240 h 400 v 10 h -400 z M 1430 4230 h 330 v 10 h -330 z M 1910 4230 h 1340 v 10 h -1340 z M 3390 4230 h 340 v 10 h -340 z M 3870 4230 h 400 v 10 h -400 z M 1430 4220 h 330 v 10 h -330 z M 1910 4220 h 1340 v 10 h -1340 z M 3390 4220 h 340 v 10 h -340 z M 3870 4220 h 400 v 10 h -400 z M 1430 4210 h 330 v 10 h -330 z M 1910 4210 h 1340 v 10 h -1340 z M 3390 4210 h 340 v 10 h -340 z M 3870 4210 h 400 v 10 h -400 z M 1430 4200 h 330 v 10 h -330 z M 1910 4200 h 1340 v 10 h -1340 z M 3390 4200 h 340 v 10 h -340 z M 3870 4200 h 400 v 10 h -400 z M 1430 4190 h 330 v 10 h -330 z M 1910 4190 h 1340 v 10 h -1340 z M 3390 4190 h 340 v 10 h -340 z M 3870 4190 h 400 v 10 h -400 z M 1430 4180 h 330 v 10 h -330 z M 1910 4180 h 1340 v 10 h -1340 z M 3390 4180 h 340 v 10 h -340 z M 3870 4180 h 400 v 10 h -400 z M 1430 4170 h 330 v 10 h -330 z M 1910 4170 h 1340 v 10 h -1340 z M 3390 4170 h 340 v 10 h -340 z M 1430 4160 h 330 v 10 h -330 z M 1910 4160 h 1340 v 10 h -1340 z M 3390 4160 h 340 v 10 h -340 z M 1430 4150 h 330 v 10 h -330 z M 1910 4150 h 1340 v 10 h -1340 z M 3390 4150 h 340 v 10 h -340 z M 1430 4140 h 330 v 10 h -330 z M 1910 4140 h 1340 v 10 h -1340 z M 3390 4140 h 340 v 10 h -340 z M 1430 4130 h 330 v 10 h -330 z M 1910 4130 h 1340 v 10 h -1340 z M 3390 4130 h 340 v 10 h -340 z M 850 4120 h 430 v 10 h -430 z M 1430 4120 h 330 v 10 h -330 z M 1910 4120 h 1340 v 10 h -1340 z M 3390 4120 h 340 v 10 h -340 z M 850 4110 h 430 v 10 h -430 z M 1430 4110 h 330 v 10 h -330 z M 1910 4110 h 1340 v 10 h -1340 z M 3390 4110 h 340 v 10 h -340 z M 850 4100 h 430 v 10 h -430 z M 1430 4100 h 330 v 10 h -330 z M 1910 4100 h 1340 v 10 h -1340 z M 3390 4100 h 340 v 10 h -340 z M 850 4090 h 430 v 10 h -430 z M 1430 4090 h 330 v 10 h -330 z M 1910 4090 h 1340 v 10 h -1340 z M 3390 4090 h 340 v 10 h -340 z M 850 4080 h 430 v 10 h -430 z M 1430 4080 h 330 v 10 h -330 z M 1910 4080 h 1340 v 10 h -1340 z M 3390 4080 h 340 v 10 h -340 z M 850 4070 h 430 v 10 h -430 z M 1430 4070 h 330 v 10 h -330 z M 1910 4070 h 1340 v 10 h -1340 z M 3390 4070 h 340 v 10 h -340 z M 850 4060 h 430 v 10 h -430 z M 1430 4060 h 330 v 10 h -330 z M 1910 4060 h 1340 v 10 h -1340 z M 3390 4060 h 340 v 10 h -340 z M 850 4050 h 430 v 10 h -430 z M 1430 4050 h 330 v 10 h -330 z M 1910 4050 h 1340 v 10 h -1340 z M 3390 4050 h 340 v 10 h -340 z M 850 4040 h 430 v 10 h -430 z M 1430 4040 h 330 v 10 h -330 z M 1910 4040 h 1340 v 10 h -1340 z M 3390 4040 h 340 v 10 h -340 z M 850 4030 h 430 v 10 h -430 z M 1430 4030 h 330 v 10 h -330 z M 1910 4030 h 1340 v 10 h -1340 z M 3390 4030 h 340 v 10 h -340 z M 3870 4030 h 210 v 10 h -210 z M 850 4020 h 430 v 10 h -430 z M 1430 4020 h 330 v 10 h -330 z M 1910 4020 h 1340 v 10 h -1340 z M 3390 4020 h 340 v 10 h -340 z M 3870 4020 h 210 v 10 h -210 z M 850 4010 h 430 v 10 h -430 z M 1430 4010 h 330 v 10 h -330 z M 1910 4010 h 1340 v 10 h -1340 z M 3390 4010 h 340 v 10 h -340 z M 3870 4010 h 210 v 10 h -210 z M 850 4000 h 430 v 10 h -430 z M 1430 4000 h 330 v 10 h -330 z M 1910 4000 h 1340 v 10 h -1340 z M 3390 4000 h 340 v 10 h -340 z M 3870 4000 h 210 v 10 h -210 z M 850 3990 h 430 v 10 h -430 z M 1430 3990 h 330 v 10 h -330 z M 1910 3990 h 1340 v 10 h -1340 z M 3390 3990 h 340 v 10 h -340 z M 3870 3990 h 210 v 10 h -210 z M 850 3980 h 430 v 10 h -430 z M 1430 3980 h 330 v 10 h -330 z M 3390 3980 h 340 v 10 h -340 z M 3870 3980 h 210 v 10 h -210 z M 850 3970 h 430 v 10 h -430 z M 1430 3970 h 330 v 10 h -330 z M 3390 3970 h 340 v 10 h -340 z M 3870 3970 h 210 v 10 h -210 z M 850 3960 h 430 v 10 h -430 z M 1430 3960 h 330 v 10 h -330 z M 3390 3960 h 340 v 10 h -340 z M 3870 3960 h 210 v 10 h -210 z M 850 3950 h 430 v 10 h -430 z M 1430 3950 h 330 v 10 h -330 z M 3390 3950 h 340 v 10 h -340 z M 3870 3950 h 210 v 10 h -210 z M 850 3940 h 430 v 10 h -430 z M 1430 3940 h 330 v 10 h -330 z M 3390 3940 h 340 v 10 h -340 z M 3870 3940 h 210 v 10 h -210 z M 850 3930 h 430 v 10 h -430 z M 1430 3930 h 330 v 10 h -330 z M 3390 3930 h 340 v 10 h -340 z M 3870 3930 h 210 v 10 h -210 z M 850 3920 h 430 v 10 h -430 z M 1430 3920 h 330 v 10 h -330 z M 3390 3920 h 340 v 10 h -340 z M 3870 3920 h 210 v 10 h -210 z M 850 3910 h 430 v 10 h -430 z M 1430 3910 h 340 v 10 h -340 z M 3390 3910 h 340 v 10 h -340 z M 3870 3910 h 210 v 10 h -210 z M 850 3900 h 430 v 10 h -430 z M 1430 3900 h 340 v 10 h -340 z M 3390 3900 h 340 v 10 h -340 z M 3870 3900 h 210 v 10 h -210 z M 850 3890 h 430 v 10 h -430 z M 1430 3890 h 340 v 10 h -340 z M 3380 3890 h 350 v 10 h -350 z M 3870 3890 h 210 v 10 h -210 z M 850 3880 h 430 v 10 h -430 z M 1430 3880 h 340 v 10 h -340 z M 3380 3880 h 350 v 10 h -350 z M 3870 3880 h 210 v 10 h -210 z M 850 3870 h 430 v 10 h -430 z M 1430 3870 h 350 v 10 h -350 z M 3370 3870 h 360 v 10 h -360 z M 3870 3870 h 210 v 10 h -210 z M 850 3860 h 430 v 10 h -430 z M 1430 3860 h 360 v 10 h -360 z M 3360 3860 h 370 v 10 h -370 z M 3870 3860 h 210 v 10 h -210 z M 850 3850 h 430 v 10 h -430 z M 1430 3850 h 370 v 10 h -370 z M 3350 3850 h 380 v 10 h -380 z M 3870 3850 h 210 v 10 h -210 z M 850 3840 h 430 v 10 h -430 z M 1430 3840 h 410 v 10 h -410 z M 3310 3840 h 420 v 10 h -420 z M 3870 3840 h 210 v 10 h -210 z M 850 3830 h 430 v 10 h -430 z M 1430 3830 h 2300 v 10 h -2300 z M 3870 3830 h 210 v 10 h -210 z M 850 3820 h 430 v 10 h -430 z M 1430 3820 h 2300 v 10 h -2300 z M 3870 3820 h 210 v 10 h -210 z M 850 3810 h 430 v 10 h -430 z M 1430 3810 h 2300 v 10 h -2300 z M 3870 3810 h 210 v 10 h -210 z M 850 3800 h 430 v 10 h -430 z M 1430 3800 h 2300 v 10 h -2300 z M 3870 3800 h 210 v 10 h -210 z M 850 3790 h 430 v 10 h -430 z M 1430 3790 h 2300 v 10 h -2300 z M 3870 3790 h 210 v 10 h -210 z M 1430 3780 h 2300 v 10 h -2300 z M 1430 3770 h 2300 v 10 h -2300 z M 1430 3760 h 2300 v 10 h -2300 z M 1430 3750 h 2300 v 10 h -2300 z M 1430 3740 h 2300 v 10 h -2300 z M 1430 3730 h 2300 v 10 h -2300 z M 1430 3720 h 2300 v 10 h -2300 z M 1430 3710 h 2300 v 10 h -2300 z M 1430 3700 h 2300 v 10 h -2300 z M 1430 3690 h 2300 v 10 h -2300 z M 1430 3680 h 2300 v 10 h -2300 z M 1430 3670 h 2300 v 10 h -2300 z M 1430 3660 h 2300 v 10 h -2300 z M 1430 3650 h 2300 v 10 h -2300 z M 850 3640 h 430 v 10 h -430 z M 1430 3640 h 2300 v 10 h -2300 z M 850 3630 h 430 v 10 h -430 z M 1430 3630 h 2300 v 10 h -2300 z M 850 3620 h 430 v 10 h -430 z M 1430 3620 h 2300 v 10 h -2300 z M 850 3610 h 430 v 10 h -430 z M 1430 3610 h 2300 v 10 h -2300 z M 850 3600 h 430 v 10 h -430 z M 1430 3600 h 2300 v 10 h -2300 z M 850 3590 h 430 v 10 h -430 z M 1430 3590 h 2300 v 10 h -2300 z M 850 3580 h 430 v 10 h -430 z M 1430 3580 h 2300 v 10 h -2300 z M 850 3570 h 430 v 10 h -430 z M 1430 3570 h 2300 v 10 h -2300 z M 850 3560 h 430 v 10 h -430 z M 1430 3560 h 2300 v 10 h -2300 z M 850 3550 h 430 v 10 h -430 z M 1430 3550 h 2300 v 10 h -2300 z M 850 3540 h 430 v 10 h -430 z M 1430 3540 h 2300 v 10 h -2300 z M 850 3530 h 430 v 10 h -430 z M 1430 3530 h 2300 v 10 h -2300 z M 850 3520 h 430 v 10 h -430 z M 1430 3520 h 2300 v 10 h -2300 z M 850 3510 h 430 v 10 h -430 z M 1430 3510 h 2300 v 10 h -2300 z M 850 3500 h 430 v 10 h -430 z M 1430 3500 h 410 v 10 h -410 z M 3320 3500 h 410 v 10 h -410 z M 850 3490 h 430 v 10 h -430 z M 1430 3490 h 370 v 10 h -370 z M 3350 3490 h 380 v 10 h -380 z M 850 3480 h 430 v 10 h -430 z M 1430 3480 h 360 v 10 h -360 z M 3360 3480 h 370 v 10 h -370 z M 850 3470 h 430 v 10 h -430 z M 1430 3470 h 350 v 10 h -350 z M 3370 3470 h 360 v 10 h -360 z M 850 3460 h 430 v 10 h -430 z M 1430 3460 h 340 v 10 h -340 z M 3380 3460 h 350 v 10 h -350 z M 850 3450 h 430 v 10 h -430 z M 1430 3450 h 340 v 10 h -340 z M 3380 3450 h 350 v 10 h -350 z M 850 3440 h 430 v 10 h -430 z M 1430 3440 h 340 v 10 h -340 z M 3390 3440 h 340 v 10 h -340 z M 850 3430 h 430 v 10 h -430 z M 1430 3430 h 340 v 10 h -340 z M 3390 3430 h 340 v 10 h -340 z M 850 3420 h 430 v 10 h -430 z M 1430 3420 h 340 v 10 h -340 z M 3390 3420 h 340 v 10 h -340 z M 850 3410 h 430 v 10 h -430 z M 1430 3410 h 340 v 10 h -340 z M 3380 3410 h 350 v 10 h -350 z M 850 3400 h 430 v 10 h -430 z M 1430 3400 h 340 v 10 h -340 z M 3380 3400 h 350 v 10 h -350 z M 850 3390 h 430 v 10 h -430 z M 1430 3390 h 350 v 10 h -350 z M 3370 3390 h 360 v 10 h -360 z M 850 3380 h 430 v 10 h -430 z M 1430 3380 h 360 v 10 h -360 z M 3370 3380 h 360 v 10 h -360 z M 850 3370 h 430 v 10 h -430 z M 1430 3370 h 370 v 10 h -370 z M 3350 3370 h 380 v 10 h -380 z M 850 3360 h 430 v 10 h -430 z M 1430 3360 h 390 v 10 h -390 z M 3330 3360 h 400 v 10 h -400 z M 850 3350 h 430 v 10 h -430 z M 1430 3350 h 2300 v 10 h -2300 z M 850 3340 h 430 v 10 h -430 z M 1430 3340 h 2300 v 10 h -2300 z M 850 3330 h 430 v 10 h -430 z M 1430 3330 h 2300 v 10 h -2300 z M 850 3320 h 430 v 10 h -430 z M 1430 3320 h 2300 v 10 h -2300 z M 850 3310 h 430 v 10 h -430 z M 1430 3310 h 2300 v 10 h -2300 z M 850 3300 h 430 v 10 h -430 z M 1430 3300 h 2300 v 10 h -2300 z M 850 3290 h 430 v 10 h -430 z M 1430 3290 h 2300 v 10 h -2300 z M 850 3280 h 430 v 10 h -430 z M 1430 3280 h 2300 v 10 h -2300 z M 850 3270 h 430 v 10 h -430 z M 1430 3270 h 2300 v 10 h -2300 z M 850 3260 h 430 v 10 h -430 z M 1430 3260 h 2300 v 10 h -2300 z M 850 3250 h 430 v 10 h -430 z M 1430 3250 h 2300 v 10 h -2300 z M 850 3240 h 430 v 10 h -430 z M 1430 3240 h 2300 v 10 h -2300 z M 850 3230 h 430 v 10 h -430 z M 1430 3230 h 2300 v 10 h -2300 z M 850 3220 h 430 v 10 h -430 z M 1430 3220 h 2300 v 10 h -2300 z M 850 3210 h 430 v 10 h -430 z M 1430 3210 h 2300 v 10 h -2300 z M 850 3200 h 430 v 10 h -430 z M 1430 3200 h 2300 v 10 h -2300 z M 850 3190 h 430 v 10 h -430 z M 1430 3190 h 2300 v 10 h -2300 z M 850 3180 h 430 v 10 h -430 z M 1430 3180 h 2300 v 10 h -2300 z M 850 3170 h 430 v 10 h -430 z M 1430 3170 h 2300 v 10 h -2300 z M 850 3160 h 430 v 10 h -430 z M 1430 3160 h 2300 v 10 h -2300 z M 850 3150 h 430 v 10 h -430 z M 1430 3150 h 2300 v 10 h -2300 z M 850 3140 h 430 v 10 h -430 z M 1430 3140 h 2300 v 10 h -2300 z M 850 3130 h 430 v 10 h -430 z M 1430 3130 h 2300 v 10 h -2300 z M 850 3120 h 430 v 10 h -430 z M 1430 3120 h 2300 v 10 h -2300 z M 850 3110 h 430 v 10 h -430 z M 1430 3110 h 2300 v 10 h -2300 z M 850 3100 h 430 v 10 h -430 z M 1430 3100 h 2300 v 10 h -2300 z M 850 3090 h 430 v 10 h -430 z M 1430 3090 h 2300 v 10 h -2300 z M 850 3080 h 430 v 10 h -430 z M 1430 3080 h 2300 v 10 h -2300 z M 850 3070 h 430 v 10 h -430 z M 1430 3070 h 2300 v 10 h -2300 z M 850 3060 h 430 v 10 h -430 z M 1430 3060 h 380 v 10 h -380 z M 3150 3060 h 580 v 10 h -580 z M 3870 3060 h 210 v 10 h -210 z M 850 3050 h 430 v 10 h -430 z M 1430 3050 h 360 v 10 h -360 z M 3170 3050 h 560 v 10 h -560 z M 3870 3050 h 210 v 10 h -210 z M 850 3040 h 430 v 10 h -430 z M 1430 3040 h 350 v 10 h -350 z M 3180 3040 h 550 v 10 h -550 z M 3870 3040 h 210 v 10 h -210 z M 850 3030 h 430 v 10 h -430 z M 1430 3030 h 350 v 10 h -350 z M 3180 3030 h 550 v 10 h -550 z M 3870 3030 h 210 v 10 h -210 z M 850 3020 h 430 v 10 h -430 z M 1430 3020 h 340 v 10 h -340 z M 3190 3020 h 540 v 10 h -540 z M 3870 3020 h 210 v 10 h -210 z M 850 3010 h 430 v 10 h -430 z M 1430 3010 h 340 v 10 h -340 z M 3190 3010 h 540 v 10 h -540 z M 3870 3010 h 210 v 10 h -210 z M 850 3000 h 430 v 10 h -430 z M 1430 3000 h 340 v 10 h -340 z M 3190 3000 h 540 v 10 h -540 z M 3870 3000 h 210 v 10 h -210 z M 850 2990 h 430 v 10 h -430 z M 1430 2990 h 340 v 10 h -340 z M 3190 2990 h 540 v 10 h -540 z M 3870 2990 h 210 v 10 h -210 z M 850 2980 h 430 v 10 h -430 z M 1430 2980 h 340 v 10 h -340 z M 3190 2980 h 540 v 10 h -540 z M 3870 2980 h 210 v 10 h -210 z M 850 2970 h 430 v 10 h -430 z M 1430 2970 h 340 v 10 h -340 z M 3190 2970 h 540 v 10 h -540 z M 3870 2970 h 210 v 10 h -210 z M 850 2960 h 430 v 10 h -430 z M 1430 2960 h 350 v 10 h -350 z M 3180 2960 h 550 v 10 h -550 z M 3870 2960 h 210 v 10 h -210 z M 850 2950 h 430 v 10 h -430 z M 1430 2950 h 350 v 10 h -350 z M 3180 2950 h 550 v 10 h -550 z M 3870 2950 h 210 v 10 h -210 z M 850 2940 h 430 v 10 h -430 z M 1430 2940 h 360 v 10 h -360 z M 3170 2940 h 560 v 10 h -560 z M 3870 2940 h 210 v 10 h -210 z M 850 2930 h 430 v 10 h -430 z M 1430 2930 h 380 v 10 h -380 z M 3150 2930 h 580 v 10 h -580 z M 3870 2930 h 210 v 10 h -210 z M 850 2920 h 430 v 10 h -430 z M 1430 2920 h 2300 v 10 h -2300 z M 3870 2920 h 210 v 10 h -210 z M 850 2910 h 430 v 10 h -430 z M 1430 2910 h 2300 v 10 h -2300 z M 3870 2910 h 210 v 10 h -210 z M 850 2900 h 430 v 10 h -430 z M 1430 2900 h 2300 v 10 h -2300 z M 3870 2900 h 210 v 10 h -210 z M 850 2890 h 430 v 10 h -430 z M 1430 2890 h 2300 v 10 h -2300 z M 3870 2890 h 210 v 10 h -210 z M 850 2880 h 430 v 10 h -430 z M 1430 2880 h 2300 v 10 h -2300 z M 3870 2880 h 210 v 10 h -210 z M 850 2870 h 430 v 10 h -430 z M 1430 2870 h 2300 v 10 h -2300 z M 3870 2870 h 210 v 10 h -210 z M 850 2860 h 430 v 10 h -430 z M 1430 2860 h 2300 v 10 h -2300 z M 3870 2860 h 210 v 10 h -210 z M 850 2850 h 430 v 10 h -430 z M 1430 2850 h 2300 v 10 h -2300 z M 3870 2850 h 210 v 10 h -210 z M 850 2840 h 430 v 10 h -430 z M 1430 2840 h 2300 v 10 h -2300 z M 3870 2840 h 210 v 10 h -210 z M 850 2830 h 430 v 10 h -430 z M 1430 2830 h 2300 v 10 h -2300 z M 3870 2830 h 210 v 10 h -210 z M 850 2820 h 430 v 10 h -430 z M 1430 2820 h 2300 v 10 h -2300 z M 850 2810 h 430 v 10 h -430 z M 1430 2810 h 2300 v 10 h -2300 z M 850 2800 h 430 v 10 h -430 z M 1430 2800 h 2300 v 10 h -2300 z M 850 2790 h 430 v 10 h -430 z M 1430 2790 h 2300 v 10 h -2300 z M 850 2780 h 430 v 10 h -430 z M 1430 2780 h 2300 v 10 h -2300 z M 850 2770 h 430 v 10 h -430 z M 1430 2770 h 2300 v 10 h -2300 z M 850 2760 h 430 v 10 h -430 z M 1430 2760 h 2300 v 10 h -2300 z M 850 2750 h 430 v 10 h -430 z M 1430 2750 h 2300 v 10 h -2300 z M 850 2740 h 430 v 10 h -430 z M 1430 2740 h 2300 v 10 h -2300 z M 850 2730 h 430 v 10 h -430 z M 1430 2730 h 2300 v 10 h -2300 z M 850 2720 h 430 v 10 h -430 z M 1430 2720 h 2300 v 10 h -2300 z M 850 2710 h 430 v 10 h -430 z M 1430 2710 h 2300 v 10 h -2300 z M 850 2700 h 430 v 10 h -430 z M 1430 2700 h 2300 v 10 h -2300 z M 850 2690 h 430 v 10 h -430 z M 1430 2690 h 2300 v 10 h -2300 z M 850 2680 h 430 v 10 h -430 z M 1430 2680 h 2300 v 10 h -2300 z M 3870 2680 h 400 v 10 h -400 z M 850 2670 h 430 v 10 h -430 z M 1430 2670 h 2300 v 10 h -2300 z M 3870 2670 h 400 v 10 h -400 z M 850 2660 h 430 v 10 h -430 z M 1430 2660 h 2300 v 10 h -2300 z M 3870 2660 h 400 v 10 h -400 z M 850 2650 h 430 v 10 h -430 z M 1430 2650 h 2300 v 10 h -2300 z M 3870 2650 h 400 v 10 h -400 z M 850 2640 h 430 v 10 h -430 z M 1430 2640 h 2300 v 10 h -2300 z M 3870 2640 h 400 v 10 h -400 z M 850 2630 h 430 v 10 h -430 z M 1430 2630 h 400 v 10 h -400 z M 2850 2630 h 880 v 10 h -880 z M 3870 2630 h 400 v 10 h -400 z M 850 2620 h 430 v 10 h -430 z M 1430 2620 h 370 v 10 h -370 z M 2870 2620 h 860 v 10 h -860 z M 3870 2620 h 400 v 10 h -400 z M 850 2610 h 430 v 10 h -430 z M 1430 2610 h 360 v 10 h -360 z M 2880 2610 h 850 v 10 h -850 z M 3870 2610 h 400 v 10 h -400 z M 850 2600 h 430 v 10 h -430 z M 1430 2600 h 350 v 10 h -350 z M 2890 2600 h 840 v 10 h -840 z M 3870 2600 h 400 v 10 h -400 z M 850 2590 h 430 v 10 h -430 z M 1430 2590 h 340 v 10 h -340 z M 2900 2590 h 830 v 10 h -830 z M 3870 2590 h 400 v 10 h -400 z M 850 2580 h 430 v 10 h -430 z M 1430 2580 h 340 v 10 h -340 z M 2900 2580 h 830 v 10 h -830 z M 3870 2580 h 400 v 10 h -400 z M 850 2570 h 430 v 10 h -430 z M 1430 2570 h 340 v 10 h -340 z M 2900 2570 h 830 v 10 h -830 z M 3870 2570 h 400 v 10 h -400 z M 850 2560 h 430 v 10 h -430 z M 1430 2560 h 340 v 10 h -340 z M 2910 2560 h 820 v 10 h -820 z M 3870 2560 h 400 v 10 h -400 z M 850 2550 h 430 v 10 h -430 z M 1430 2550 h 340 v 10 h -340 z M 2900 2550 h 830 v 10 h -830 z M 3870 2550 h 400 v 10 h -400 z M 850 2540 h 430 v 10 h -430 z M 1430 2540 h 340 v 10 h -340 z M 2900 2540 h 830 v 10 h -830 z M 3870 2540 h 400 v 10 h -400 z M 850 2530 h 430 v 10 h -430 z M 1430 2530 h 340 v 10 h -340 z M 2900 2530 h 830 v 10 h -830 z M 3870 2530 h 400 v 10 h -400 z M 850 2520 h 430 v 10 h -430 z M 1430 2520 h 350 v 10 h -350 z M 2890 2520 h 840 v 10 h -840 z M 3870 2520 h 400 v 10 h -400 z M 850 2510 h 430 v 10 h -430 z M 1430 2510 h 360 v 10 h -360 z M 2880 2510 h 850 v 10 h -850 z M 3870 2510 h 400 v 10 h -400 z M 850 2500 h 430 v 10 h -430 z M 1430 2500 h 370 v 10 h -370 z M 2870 2500 h 860 v 10 h -860 z M 3870 2500 h 400 v 10 h -400 z M 850 2490 h 430 v 10 h -430 z M 1430 2490 h 400 v 10 h -400 z M 2850 2490 h 880 v 10 h -880 z M 3870 2490 h 400 v 10 h -400 z M 850 2480 h 430 v 10 h -430 z M 1430 2480 h 2300 v 10 h -2300 z M 3870 2480 h 400 v 10 h -400 z M 850 2470 h 430 v 10 h -430 z M 1430 2470 h 2300 v 10 h -2300 z M 3870 2470 h 400 v 10 h -400 z M 850 2460 h 430 v 10 h -430 z M 1430 2460 h 2300 v 10 h -2300 z M 3870 2460 h 400 v 10 h -400 z M 850 2450 h 430 v 10 h -430 z M 1430 2450 h 2300 v 10 h -2300 z M 3870 2450 h 400 v 10 h -400 z M 850 2440 h 430 v 10 h -430 z M 1430 2440 h 2300 v 10 h -2300 z M 3870 2440 h 400 v 10 h -400 z M 850 2430 h 430 v 10 h -430 z M 1430 2430 h 2300 v 10 h -2300 z M 850 2420 h 430 v 10 h -430 z M 1430 2420 h 2300 v 10 h -2300 z M 850 2410 h 430 v 10 h -430 z M 1430 2410 h 2300 v 10 h -2300 z M 850 2400 h 430 v 10 h -430 z M 1430 2400 h 2300 v 10 h -2300 z M 850 2390 h 430 v 10 h -430 z M 1430 2390 h 2300 v 10 h -2300 z M 850 2380 h 430 v 10 h -430 z M 1430 2380 h 2300 v 10 h -2300 z M 850 2370 h 430 v 10 h -430 z M 1430 2370 h 2300 v 10 h -2300 z M 850 2360 h 430 v 10 h -430 z M 1430 2360 h 2300 v 10 h -2300 z M 850 2350 h 430 v 10 h -430 z M 1430 2350 h 2300 v 10 h -2300 z M 850 2340 h 430 v 10 h -430 z M 1430 2340 h 2300 v 10 h -2300 z M 850 2330 h 430 v 10 h -430 z M 1430 2330 h 2300 v 10 h -2300 z M 850 2320 h 430 v 10 h -430 z M 1430 2320 h 2300 v 10 h -2300 z M 850 2310 h 430 v 10 h -430 z M 1430 2310 h 2300 v 10 h -2300 z M 850 2300 h 430 v 10 h -430 z M 1430 2300 h 2300 v 10 h -2300 z M 850 2290 h 430 v 10 h -430 z M 1430 2290 h 2300 v 10 h -2300 z M 850 2280 h 430 v 10 h -430 z M 1430 2280 h 2300 v 10 h -2300 z M 850 2270 h 430 v 10 h -430 z M 1430 2270 h 2300 v 10 h -2300 z M 850 2260 h 430 v 10 h -430 z M 1430 2260 h 2300 v 10 h -2300 z M 850 2250 h 430 v 10 h -430 z M 1430 2250 h 2300 v 10 h -2300 z M 850 2240 h 430 v 10 h -430 z M 1430 2240 h 2300 v 10 h -2300 z M 850 2230 h 430 v 10 h -430 z M 1430 2230 h 2300 v 10 h -2300 z M 850 2220 h 430 v 10 h -430 z M 1430 2220 h 2300 v 10 h -2300 z M 850 2210 h 430 v 10 h -430 z M 1430 2210 h 2300 v 10 h -2300 z M 850 2200 h 430 v 10 h -430 z M 1430 2200 h 2300 v 10 h -2300 z M 850 2190 h 430 v 10 h -430 z M 1430 2190 h 380 v 10 h -380 z M 3340 2190 h 390 v 10 h -390 z M 850 2180 h 430 v 10 h -430 z M 1430 2180 h 360 v 10 h -360 z M 3360 2180 h 370 v 10 h -370 z M 850 2170 h 430 v 10 h -430 z M 1430 2170 h 350 v 10 h -350 z M 3370 2170 h 360 v 10 h -360 z M 850 2160 h 430 v 10 h -430 z M 1430 2160 h 350 v 10 h -350 z M 3380 2160 h 350 v 10 h -350 z M 850 2150 h 430 v 10 h -430 z M 1430 2150 h 340 v 10 h -340 z M 3380 2150 h 350 v 10 h -350 z M 850 2140 h 430 v 10 h -430 z M 1430 2140 h 340 v 10 h -340 z M 3390 2140 h 340 v 10 h -340 z M 850 2130 h 430 v 10 h -430 z M 1430 2130 h 340 v 10 h -340 z M 3390 2130 h 340 v 10 h -340 z M 850 2120 h 430 v 10 h -430 z M 1430 2120 h 340 v 10 h -340 z M 3390 2120 h 340 v 10 h -340 z M 850 2110 h 430 v 10 h -430 z M 1430 2110 h 340 v 10 h -340 z M 3390 2110 h 340 v 10 h -340 z M 850 2100 h 430 v 10 h -430 z M 1430 2100 h 340 v 10 h -340 z M 3380 2100 h 350 v 10 h -350 z M 850 2090 h 430 v 10 h -430 z M 1430 2090 h 350 v 10 h -350 z M 3380 2090 h 350 v 10 h -350 z M 850 2080 h 430 v 10 h -430 z M 1430 2080 h 350 v 10 h -350 z M 3370 2080 h 360 v 10 h -360 z M 850 2070 h 430 v 10 h -430 z M 1430 2070 h 360 v 10 h -360 z M 3360 2070 h 370 v 10 h -370 z M 850 2060 h 430 v 10 h -430 z M 1430 2060 h 380 v 10 h -380 z M 3340 2060 h 390 v 10 h -390 z M 850 2050 h 430 v 10 h -430 z M 1430 2050 h 2300 v 10 h -2300 z M 850 2040 h 430 v 10 h -430 z M 1430 2040 h 2300 v 10 h -2300 z M 850 2030 h 430 v 10 h -430 z M 1430 2030 h 2300 v 10 h -2300 z M 850 2020 h 430 v 10 h -430 z M 1430 2020 h 2300 v 10 h -2300 z M 850 2010 h 430 v 10 h -430 z M 1430 2010 h 2300 v 10 h -2300 z M 850 2000 h 430 v 10 h -430 z M 1430 2000 h 2300 v 10 h -2300 z M 850 1990 h 430 v 10 h -430 z M 1430 1990 h 2300 v 10 h -2300 z M 850 1980 h 430 v 10 h -430 z M 1430 1980 h 2300 v 10 h -2300 z M 850 1970 h 430 v 10 h -430 z M 1430 1970 h 2300 v 10 h -2300 z M 850 1960 h 430 v 10 h -430 z M 1430 1960 h 2300 v 10 h -2300 z M 850 1950 h 430 v 10 h -430 z M 1430 1950 h 2300 v 10 h -2300 z M 850 1940 h 430 v 10 h -430 z M 1430 1940 h 2300 v 10 h -2300 z M 850 1930 h 430 v 10 h -430 z M 1430 1930 h 2300 v 10 h -2300 z M 850 1920 h 430 v 10 h -430 z M 1430 1920 h 2300 v 10 h -2300 z M 850 1910 h 430 v 10 h -430 z M 1430 1910 h 2300 v 10 h -2300 z M 850 1900 h 430 v 10 h -430 z M 1430 1900 h 2300 v 10 h -2300 z M 3870 1900 h 310 v 10 h -310 z M 850 1890 h 430 v 10 h -430 z M 1430 1890 h 2300 v 10 h -2300 z M 3870 1890 h 310 v 10 h -310 z M 850 1880 h 430 v 10 h -430 z M 1430 1880 h 2300 v 10 h -2300 z M 3870 1880 h 310 v 10 h -310 z M 850 1870 h 430 v 10 h -430 z M 1430 1870 h 2300 v 10 h -2300 z M 3870 1870 h 310 v 10 h -310 z M 850 1860 h 430 v 10 h -430 z M 1430 1860 h 2300 v 10 h -2300 z M 3870 1860 h 310 v 10 h -310 z M 850 1850 h 430 v 10 h -430 z M 1430 1850 h 2300 v 10 h -2300 z M 3870 1850 h 310 v 10 h -310 z M 850 1840 h 430 v 10 h -430 z M 1430 1840 h 2300 v 10 h -2300 z M 3870 1840 h 310 v 10 h -310 z M 850 1830 h 430 v 10 h -430 z M 1430 1830 h 2300 v 10 h -2300 z M 3870 1830 h 310 v 10 h -310 z M 850 1820 h 430 v 10 h -430 z M 1430 1820 h 2300 v 10 h -2300 z M 3870 1820 h 310 v 10 h -310 z M 850 1810 h 430 v 10 h -430 z M 1430 1810 h 2300 v 10 h -2300 z M 3870 1810 h 310 v 10 h -310 z M 850 1800 h 430 v 10 h -430 z M 1430 1800 h 2300 v 10 h -2300 z M 3870 1800 h 310 v 10 h -310 z M 850 1790 h 430 v 10 h -430 z M 1430 1790 h 2300 v 10 h -2300 z M 3870 1790 h 310 v 10 h -310 z M 850 1780 h 430 v 10 h -430 z M 1430 1780 h 2300 v 10 h -2300 z M 3870 1780 h 310 v 10 h -310 z M 850 1770 h 430 v 10 h -430 z M 1430 1770 h 2300 v 10 h -2300 z M 3870 1770 h 310 v 10 h -310 z M 850 1760 h 430 v 10 h -430 z M 1430 1760 h 390 v 10 h -390 z M 2750 1760 h 980 v 10 h -980 z M 3870 1760 h 310 v 10 h -310 z M 850 1750 h 430 v 10 h -430 z M 1430 1750 h 370 v 10 h -370 z M 2780 1750 h 950 v 10 h -950 z M 3870 1750 h 310 v 10 h -310 z M 850 1740 h 430 v 10 h -430 z M 1430 1740 h 360 v 10 h -360 z M 2790 1740 h 940 v 10 h -940 z M 3870 1740 h 310 v 10 h -310 z M 850 1730 h 430 v 10 h -430 z M 1430 1730 h 350 v 10 h -350 z M 2800 1730 h 930 v 10 h -930 z M 3870 1730 h 310 v 10 h -310 z M 850 1720 h 430 v 10 h -430 z M 1430 1720 h 340 v 10 h -340 z M 2800 1720 h 930 v 10 h -930 z M 3870 1720 h 310 v 10 h -310 z M 850 1710 h 430 v 10 h -430 z M 1430 1710 h 340 v 10 h -340 z M 2810 1710 h 920 v 10 h -920 z M 3870 1710 h 310 v 10 h -310 z M 850 1700 h 430 v 10 h -430 z M 1430 1700 h 340 v 10 h -340 z M 2810 1700 h 920 v 10 h -920 z M 3870 1700 h 310 v 10 h -310 z M 850 1690 h 430 v 10 h -430 z M 1430 1690 h 340 v 10 h -340 z M 2810 1690 h 920 v 10 h -920 z M 3870 1690 h 310 v 10 h -310 z M 850 1680 h 430 v 10 h -430 z M 1430 1680 h 340 v 10 h -340 z M 2810 1680 h 920 v 10 h -920 z M 3870 1680 h 310 v 10 h -310 z M 850 1670 h 430 v 10 h -430 z M 1430 1670 h 340 v 10 h -340 z M 2800 1670 h 930 v 10 h -930 z M 3870 1670 h 310 v 10 h -310 z M 850 1660 h 430 v 10 h -430 z M 1430 1660 h 340 v 10 h -340 z M 2800 1660 h 930 v 10 h -930 z M 850 1650 h 430 v 10 h -430 z M 1430 1650 h 350 v 10 h -350 z M 2790 1650 h 940 v 10 h -940 z M 850 1640 h 430 v 10 h -430 z M 1430 1640 h 360 v 10 h -360 z M 2780 1640 h 950 v 10 h -950 z M 850 1630 h 430 v 10 h -430 z M 1430 1630 h 370 v 10 h -370 z M 2770 1630 h 960 v 10 h -960 z M 850 1620 h 430 v 10 h -430 z M 1430 1620 h 410 v 10 h -410 z M 2740 1620 h 990 v 10 h -990 z M 850 1610 h 430 v 10 h -430 z M 1430 1610 h 2300 v 10 h -2300 z M 850 1600 h 430 v 10 h -430 z M 1430 1600 h 2300 v 10 h -2300 z M 850 1590 h 430 v 10 h -430 z M 1430 1590 h 2300 v 10 h -2300 z M 850 1580 h 430 v 10 h -430 z M 1430 1580 h 2300 v 10 h -2300 z M 850 1570 h 430 v 10 h -430 z M 1430 1570 h 2300 v 10 h -2300 z M 850 1560 h 430 v 10 h -430 z M 1430 1560 h 2300 v 10 h -2300 z M 850 1550 h 430 v 10 h -430 z M 1430 1550 h 2300 v 10 h -2300 z M 850 1540 h 430 v 10 h -430 z M 1430 1540 h 2300 v 10 h -2300 z M 850 1530 h 430 v 10 h -430 z M 1430 1530 h 2300 v 10 h -2300 z M 850 1520 h 430 v 10 h -430 z M 1430 1520 h 2300 v 10 h -2300 z M 850 1510 h 430 v 10 h -430 z M 1430 1510 h 2300 v 10 h -2300 z M 850 1500 h 430 v 10 h -430 z M 1430 1500 h 2300 v 10 h -2300 z M 850 1490 h 430 v 10 h -430 z M 1430 1490 h 2300 v 10 h -2300 z M 850 1480 h 430 v 10 h -430 z M 1430 1480 h 2300 v 10 h -2300 z M 850 1470 h 430 v 10 h -430 z M 1430 1470 h 2300 v 10 h -2300 z M 850 1460 h 430 v 10 h -430 z M 1430 1460 h 2300 v 10 h -2300 z M 850 1450 h 430 v 10 h -430 z M 1430 1450 h 2300 v 10 h -2300 z M 850 1440 h 430 v 10 h -430 z M 1430 1440 h 2300 v 10 h -2300 z M 850 1430 h 430 v 10 h -430 z M 1430 1430 h 2300 v 10 h -2300 z M 850 1420 h 430 v 10 h -430 z M 1430 1420 h 2300 v 10 h -2300 z M 850 1410 h 430 v 10 h -430 z M 1430 1410 h 2300 v 10 h -2300 z M 850 1400 h 430 v 10 h -430 z M 1430 1400 h 2300 v 10 h -2300 z M 850 1390 h 430 v 10 h -430 z M 1430 1390 h 2300 v 10 h -2300 z M 850 1380 h 430 v 10 h -430 z M 1430 1380 h 2300 v 10 h -2300 z M 850 1370 h 430 v 10 h -430 z M 1430 1370 h 2300 v 10 h -2300 z M 850 1360 h 430 v 10 h -430 z M 1430 1360 h 2300 v 10 h -2300 z M 850 1350 h 430 v 10 h -430 z M 1430 1350 h 2300 v 10 h -2300 z M 850 1340 h 430 v 10 h -430 z M 1430 1340 h 2300 v 10 h -2300 z M 850 1330 h 430 v 10 h -430 z M 1430 1330 h 2300 v 10 h -2300 z M 850 1320 h 430 v 10 h -430 z M 1430 1320 h 2300 v 10 h -2300 z M 850 1310 h 430 v 10 h -430 z M 1430 1310 h 2300 v 10 h -2300 z M 850 1300 h 430 v 10 h -430 z M 1430 1300 h 2300 v 10 h -2300 z M 850 1290 h 190 v 10 h -190 z M 850 1280 h 130 v 10 h -130 z M 850 1270 h 100 v 10 h -100 z M 850 1260 h 70 v 10 h -70 z M 850 1250 h 50 v 10 h -50 z M 850 1240 h 40 v 10 h -40 z M 850 1230 h 20 v 10 h -20 z M 1000 1140 h 1440 v 10 h -1440 z M 2580 1140 h 440 v 10 h -440 z M 3160 1140 h 340 v 10 h -340 z M 980 1130 h 1460 v 10 h -1460 z M 2580 1130 h 440 v 10 h -440 z M 3160 1130 h 340 v 10 h -340 z M 960 1120 h 1480 v 10 h -1480 z M 2580 1120 h 440 v 10 h -440 z M 3160 1120 h 330 v 10 h -330 z M 940 1110 h 1500 v 10 h -1500 z M 2580 1110 h 440 v 10 h -440 z M 3160 1110 h 320 v 10 h -320 z M 930 1100 h 1510 v 10 h -1510 z M 2580 1100 h 440 v 10 h -440 z M 3160 1100 h 320 v 10 h -320 z M 920 1090 h 1520 v 10 h -1520 z M 2580 1090 h 440 v 10 h -440 z M 3160 1090 h 310 v 10 h -310 z M 910 1080 h 1530 v 10 h -1530 z M 2580 1080 h 440 v 10 h -440 z M 3160 1080 h 310 v 10 h -310 z M 900 1070 h 1540 v 10 h -1540 z M 2580 1070 h 440 v 10 h -440 z M 3160 1070 h 300 v 10 h -300 z M 890 1060 h 1550 v 10 h -1550 z M 2580 1060 h 440 v 10 h -440 z M 3160 1060 h 300 v 10 h -300 z M 880 1050 h 1560 v 10 h -1560 z M 2580 1050 h 440 v 10 h -440 z M 3160 1050 h 300 v 10 h -300 z M 880 1040 h 1560 v 10 h -1560 z M 2580 1040 h 440 v 10 h -440 z M 3160 1040 h 290 v 10 h -290 z M 870 1030 h 1570 v 10 h -1570 z M 2580 1030 h 440 v 10 h -440 z M 3160 1030 h 290 v 10 h -290 z M 870 1020 h 1570 v 10 h -1570 z M 2580 1020 h 440 v 10 h -440 z M 3160 1020 h 290 v 10 h -290 z M 860 1010 h 1580 v 10 h -1580 z M 2580 1010 h 440 v 10 h -440 z M 3160 1010 h 280 v 10 h -280 z M 860 1000 h 1580 v 10 h -1580 z M 2580 1000 h 440 v 10 h -440 z M 3160 1000 h 280 v 10 h -280 z M 860 990 h 1580 v 10 h -1580 z M 2580 990 h 440 v 10 h -440 z M 3160 990 h 280 v 10 h -280 z M 850 980 h 1590 v 10 h -1590 z M 2580 980 h 440 v 10 h -440 z M 3160 980 h 280 v 10 h -280 z M 850 970 h 1590 v 10 h -1590 z M 2580 970 h 440 v 10 h -440 z M 3160 970 h 280 v 10 h -280 z M 850 960 h 1590 v 10 h -1590 z M 2580 960 h 440 v 10 h -440 z M 3160 960 h 270 v 10 h -270 z M 850 950 h 1590 v 10 h -1590 z M 2580 950 h 440 v 10 h -440 z M 3160 950 h 270 v 10 h -270 z M 850 940 h 1590 v 10 h -1590 z M 2580 940 h 440 v 10 h -440 z M 3160 940 h 270 v 10 h -270 z M 850 930 h 1590 v 10 h -1590 z M 2580 930 h 440 v 10 h -440 z M 3160 930 h 270 v 10 h -270 z M 850 920 h 1590 v 10 h -1590 z M 2580 920 h 440 v 10 h -440 z M 3160 920 h 270 v 10 h -270 z M 850 910 h 1590 v 10 h -1590 z M 2580 910 h 440 v 10 h -440 z M 3160 910 h 270 v 10 h -270 z M 850 900 h 1590 v 10 h -1590 z M 2580 900 h 440 v 10 h -440 z M 3160 900 h 270 v 10 h -270 z M 850 890 h 1590 v 10 h -1590 z M 2580 890 h 440 v 10 h -440 z M 3160 890 h 270 v 10 h -270 z M 850 880 h 1590 v 10 h -1590 z M 2580 880 h 440 v 10 h -440 z M 3160 880 h 280 v 10 h -280 z M 850 870 h 1590 v 10 h -1590 z M 2580 870 h 440 v 10 h -440 z M 3160 870 h 280 v 10 h -280 z M 860 860 h 1580 v 10 h -1580 z M 2580 860 h 440 v 10 h -440 z M 3160 860 h 280 v 10 h -280 z M 860 850 h 1580 v 10 h -1580 z M 2580 850 h 440 v 10 h -440 z M 3160 850 h 280 v 10 h -280 z M 860 840 h 1580 v 10 h -1580 z M 2580 840 h 440 v 10 h -440 z M 3160 840 h 280 v 10 h -280 z M 870 830 h 1570 v 10 h -1570 z M 2580 830 h 440 v 10 h -440 z M 3160 830 h 290 v 10 h -290 z M 870 820 h 1570 v 10 h -1570 z M 2580 820 h 440 v 10 h -440 z M 3160 820 h 290 v 10 h -290 z M 880 810 h 1560 v 10 h -1560 z M 2580 810 h 440 v 10 h -440 z M 3160 810 h 290 v 10 h -290 z M 880 800 h 1560 v 10 h -1560 z M 2580 800 h 440 v 10 h -440 z M 3160 800 h 300 v 10 h -300 z M 890 790 h 1550 v 10 h -1550 z M 2580 790 h 440 v 10 h -440 z M 3160 790 h 300 v 10 h -300 z M 900 780 h 1540 v 10 h -1540 z M 2580 780 h 440 v 10 h -440 z M 3160 780 h 300 v 10 h -300 z M 910 770 h 1530 v 10 h -1530 z M 2580 770 h 440 v 10 h -440 z M 3160 770 h 310 v 10 h -310 z M 920 760 h 1520 v 10 h -1520 z M 2580 760 h 440 v 10 h -440 z M 3160 760 h 310 v 10 h -310 z M 930 750 h 1510 v 10 h -1510 z M 2580 750 h 440 v 10 h -440 z M 3160 750 h 320 v 10 h -320 z M 940 740 h 1500 v 10 h -1500 z M 2580 740 h 440 v 10 h -440 z M 3160 740 h 320 v 10 h -320 z M 960 730 h 1480 v 10 h -1480 z M 2580 730 h 440 v 10 h -440 z M 3160 730 h 330 v 10 h -330 z M 980 720 h 1460 v 10 h -1460 z M 2580 720 h 440 v 10 h -440 z M 3160 720 h 340 v 10 h -340 z M 1000 710 h 1440 v 10 h -1440 z M 2580 710 h 440 v 10 h -440 z M 3160 710 h 340 v 10 h -340 z M 2580 700 h 440 v 10 h -440 z M 2580 690 h 440 v 10 h -440 z M 2580 680 h 440 v 10 h -440 z M 2580 670 h 440 v 10 h -440 z M 2580 660 h 440 v 10 h -440 z M 2580 650 h 440 v 10 h -440 z M 2580 640 h 440 v 10 h -440 z M 2580 630 h 440 v 10 h -440 z M 2580 620 h 440 v 10 h -440 z M 2580 610 h 440 v 10 h -440 z M 2580 600 h 440 v 10 h -440 z M 2580 590 h 440 v 10 h -440 z M 2580 580 h 440 v 10 h -440 z M 2580 570 h 440 v 10 h -440 z M 2580 560 h 440 v 10 h -440 z M 2580 550 h 440 v 10 h -440 z M 2580 540 h 440 v 10 h -440 z M 2580 530 h 440 v 10 h -440 z M 2580 520 h 440 v 10 h -440 z M 2580 510 h 440 v 10 h -440 z M 2580 500 h 190 v 10 h -190 z M 2830 500 h 190 v 10 h -190 z M 2580 490 h 180 v 10 h -180 z M 2840 490 h 180 v 10 h -180 z M 2580 480 h 170 v 10 h -170 z M 2860 480 h 160 v 10 h -160 z M 2580 470 h 160 v 10 h -160 z M 2870 470 h 150 v 10 h -150 z M 2580 460 h 150 v 10 h -150 z M 2880 460 h 140 v 10 h -140 z M 2580 450 h 140 v 10 h -140 z M 2890 450 h 130 v 10 h -130 z M 2580 440 h 130 v 10 h -130 z M 2900 440 h 120 v 10 h -120 z M 2580 430 h 120 v 10 h -120 z M 2910 430 h 110 v 10 h -110 z M 2580 420 h 110 v 10 h -110 z M 2920 420 h 100 v 10 h -100 z M 2580 410 h 100 v 10 h -100 z M 2930 410 h 90 v 10 h -90 z M 2580 400 h 90 v 10 h -90 z M 2940 400 h 80 v 10 h -80 z M 2580 390 h 80 v 10 h -80 z M 2950 390 h 70 v 10 h -70 z M 2580 380 h 70 v 10 h -70 z M 2960 380 h 60 v 10 h -60 z M 2580 370 h 60 v 10 h -60 z M 2970 370 h 50 v 10 h -50 z M 2580 360 h 50 v 10 h -50 z M 2980 360 h 40 v 10 h -40 z M 2580 350 h 40 v 10 h -40 z M 2990 350 h 30 v 10 h -30 z M 2580 340 h 30 v 10 h -30 z M 3000 340 h 20 v 10 h -20 z M 2580 330 h 20 v 10 h -20 z M 3010 330 h 10 v 10 h -10 z"/>
</g>
</g><text dy="76.8"  text-anchor="middle" dx="50%" textLength="100%" font-weight="bold" font-size="76.8" fill="rgb(51,130,117)">EduBridge</text><text dy="501.76"  text-anchor="middle" dx="50%" textLength="100%" font-weight="bold" font-size="76.8" fill="rgb(51,130,117)">Institute</text></svg>